HIERARCHY
ROOT Hips
{
    OFFSET 0.000000 0.000000 0.000000
    CHANNELS 6 Xposition Yposition Zposition Zrotation Xrotation Yrotation
    JOINT Spine
    {
        OFFSET -0.000000 7.236184 0.000000
        CHANNELS 3 Zrotation Xrotation Yrotation
        JOINT Spine1
        {
            OFFSET -0.000000 20.420147 0.000000
            CHANNELS 3 Zrotation Xrotation Yrotation
            JOINT Neck
            {
                OFFSET -0.000000 20.336288 1.848754
                CHANNELS 3 Zrotation Xrotation Yrotation
                JOINT Head
                {
                    OFFSET -0.000000 12.354461 -1.764923
                    CHANNELS 3 Zrotation Xrotation Yrotation
                    End Site
                    {
                        OFFSET -0.000000 22.061537 0.000000
                    }
                }
            }
            JOINT LeftShoulder
            {
                OFFSET 3.573296 18.396038 -0.314103
                CHANNELS 3 Zrotation Xrotation Yrotation
                JOINT LeftArm
                {
                    OFFSET 10.880760 0.000000 0.000000
                    CHANNELS 3 Zrotation Xrotation Yrotation
                    JOINT LeftForeArm
                    {
                        OFFSET 27.185530 0.000000 0.000000
                        CHANNELS 3 Zrotation Xrotation Yrotation
                        JOINT LeftHand
                        {
                            OFFSET 27.825975 0.000000 0.000000
                            CHANNELS 3 Zrotation Xrotation Yrotation
                            End Site
                            {
                                OFFSET 13.236923 0.000000 0.000000
                            }
                        }
                    }
                }
            }
            JOINT RightShoulder
            {
                OFFSET -3.474926 18.396038 -0.314103
                CHANNELS 3 Zrotation Xrotation Yrotation
                JOINT RightArm
                {
                    OFFSET -10.880760 0.000000 0.000000
                    CHANNELS 3 Zrotation Xrotation Yrotation
                    JOINT RightForeArm
                    {
                        OFFSET -27.185530 0.000000 0.000000
                        CHANNELS 3 Zrotation Xrotation Yrotation
                        JOINT RightHand
                        {
                            OFFSET -27.825975 0.000000 0.000000
                            CHANNELS 3 Zrotation Xrotation Yrotation
                            End Site
                            {
                                OFFSET -13.236923 0.000000 0.000000
                            }
                        }
                    }
                }
            }
        }
    }
    JOINT LeftUpLeg
    {
        OFFSET 8.824615 0.000000 0.000000
        CHANNELS 3 Zrotation Xrotation Yrotation
        JOINT LeftLeg
        {
            OFFSET -0.000000 -35.111282 0.000000
            CHANNELS 3 Zrotation Xrotation Yrotation
            JOINT LeftFoot
            {
                OFFSET -0.000000 -42.324711 0.000000
                CHANNELS 3 Zrotation Xrotation Yrotation
                JOINT LeftToeBase
                {
                    OFFSET -0.000000 -5.735999 13.236923
                    CHANNELS 3 Zrotation Xrotation Yrotation
                    End Site
                    {
                        OFFSET -0.000000 0.000000 3.529846
                    }
                }
            }
        }
    }
    JOINT RightUpLeg
    {
        OFFSET -8.824615 0.000000 0.000000
        CHANNELS 3 Zrotation Xrotation Yrotation
        JOINT RightLeg
        {
            OFFSET -0.000000 -35.111282 0.000000
            CHANNELS 3 Zrotation Xrotation Yrotation
            JOINT RightFoot
            {
                OFFSET -0.000000 -42.324711 0.000000
                CHANNELS 3 Zrotation Xrotation Yrotation
                JOINT RightToeBase
                {
                    OFFSET -0.000000 -5.735999 13.236923
                    CHANNELS 3 Zrotation Xrotation Yrotation
                    End Site
                    {
                        OFFSET -0.000000 0.000000 3.529846
                    }
                }
            }
        }
    }
}
MOTION
Frames:    9
Frame Time:    0.008333
-4.435520    85.364784    94.015190    17.107723    13.498776    -105.544670    -3.578856    -12.488606    2.558177    -3.116548    10.347868    3.232033    6.277522    23.040018    -25.583258    29.859348    -3.959931    -21.217533    3.343553    10.095972    2.430658    -39.628159    32.960945    -23.441277    17.227362    -3.469954    -84.217674    37.363770    8.368828    -11.541299    -1.454335    15.880343    -3.266004    33.772778    44.383461    36.545277    -29.336395    -12.677347    69.251976    -30.071798    6.983741    4.314630    17.102369    -22.029469    10.630829    -4.224775    25.574581    25.195293    -0.559078    -15.054115    -8.080339    0.234238    0.751718    -0.259296    -6.366719    -26.937315    -1.928450    18.524479    31.535397    -18.845232    16.139393    12.350677    -12.414373    -0.378129    -2.813915    0.410599    
-4.261421    85.410767    94.074715    17.229551    13.987622    -105.653107    -3.563546    -12.177701    2.434842    -2.706717    10.292485    3.058776    6.566559    23.064394    -25.416744    29.824051    -3.889401    -21.042669    3.525848    9.906681    1.993834    -38.738304    32.916134    -24.845425    17.577221    -4.332924    -85.568184    36.775341    8.485806    -10.958472    -1.525028    15.544975    -2.998139    32.790565    44.054245    36.601154    -29.243458    -12.310640    68.095909    -30.478914    6.748534    4.564952    17.772749    -22.207134    10.829248    -4.318167    25.770031    25.182280    -0.700543    -14.977436    -8.262931    0.280691    0.734112    -0.310728    -7.365513    -28.469749    -2.713772    19.889273    33.897064    -19.536835    16.776890    13.049606    -12.203935    -0.407599    -2.437722    0.442360    
-4.076692    85.448914    94.129379    17.356184    14.516220    -105.739838    -3.544232    -11.847220    2.301418    -2.265987    10.245546    2.872321    6.858471    23.097301    -25.246853    29.800444    -3.808115    -20.863977    3.727298    9.678871    1.511822    -37.804665    32.845867    -26.256378    17.969736    -5.305813    -86.987808    36.232578    8.571303    -10.371957    -1.595416    15.184079    -2.708007    31.808582    43.689781    36.601669    -29.121660    -11.922804    66.839264    -30.927469    6.475224    4.836611    18.502125    -22.428703    11.058873    -4.416571    26.036526    25.147659    -0.850502    -14.907474    -8.459275    0.329571    0.707765    -0.364856    -8.440297    -30.037798    -3.649676    21.265650    36.354481    -20.216305    17.305420    13.684997    -12.015138    -0.423630    -2.004626    0.459473    
-3.878909    85.478432    94.178970    17.490391    15.094414    -105.801476    -3.516294    -11.492584    2.157913    -1.789690    10.206463    2.671564    7.156256    23.138998    -25.074432    29.791889    -3.715983    -20.681620    3.949931    9.402104    0.977530    -36.819073    32.736019    -27.692778    18.405197    -6.400389    -88.490211    35.736847    8.625035    -9.784318    -1.664621    14.792612    -2.391057    30.824909    43.281185    36.536953    -28.960014    -11.502275    65.452866    -31.420977    6.158076    5.134929    19.304779    -22.704121    11.325818    -4.520019    26.386484    25.086496    -1.012039    -14.843946    -8.674713    0.380794    0.671965    -0.421589    -9.615644    -31.649149    -4.748003    22.667337    38.922302    -20.902483    17.731813    14.251320    -11.838348    -0.428592    -1.529938    0.464543    
-3.671206    85.497574    94.221817    17.631266    15.716282    -105.832489    -3.475299    -11.119294    2.008337    -1.286597    10.176208    2.461158    7.455110    23.187822    -24.905689    29.800941    -3.616650    -20.501202    4.189432    9.073657    0.399369    -35.805767    32.572651    -29.130491    18.870010    -7.594813    -90.046188    35.305035    8.646230    -9.216002    -1.729040    14.376244    -2.051997    29.866146    42.829960    36.398483    -28.750763    -11.048802    63.945629    -31.946547    5.801346    5.456532    20.172760    -23.036001    11.629208    -4.624452    26.822485    24.993757    -1.183692    -14.788198    -8.907869    0.433256    0.626638    -0.479710    -10.885061    -33.264011    -5.984857    24.073519    41.536938    -21.600960    18.051291    14.728509    -11.669885    -0.424861    -1.044494    0.460185    
-3.453993    85.505463    94.257378    17.779654    16.383480    -105.829575    -3.416718    -10.727509    1.854758    -0.758756    10.154584    2.242971    7.754002    23.241755    -24.743919    29.830265    -3.512298    -20.325413    4.444444    8.689416    -0.220376    -34.778996    32.338890    -30.567677    19.354567    -8.878192    -91.646896    34.943699    8.636359    -8.678897    -1.786669    13.936069    -1.691930    28.942011    42.331589    36.181194    -28.483778    -10.556028    62.308197    -32.495956    5.406746    5.801790    21.107986    -23.428669    11.970495    -4.726784    27.348061    24.864937    -1.366112    -14.739941    -9.160375    0.486380    0.571904    -0.538583    -12.260739    -34.866695    -7.345853    25.492224    44.168682    -22.332928    18.272013    15.112068    -11.504544    -0.415202    -0.571075    0.449427    
-3.229266    85.501411    94.285179    17.935213    17.092695    -105.790367    -3.336414    -10.320365    1.700385    -0.212040    10.141723    2.020488    8.050755    23.298191    -24.593449    29.880810    -3.407460    -20.157911    4.711212    8.249845    -0.875315    -33.763176    32.018745    -31.991463    19.844328    -10.227580    -93.273155    34.660389    8.597204    -8.187948    -1.834802    13.476558    -1.315185    28.065670    41.784641    35.884529    -28.150768    -10.021646    60.543461    -33.055634    4.980161    6.168442    22.105028    -23.882099    12.349045    -4.822355    27.960243    24.696129    -1.558101    -14.698829    -9.431257    0.539483    0.508117    -0.597453    -13.746304    -36.430786    -8.805077    26.926882    46.767746    -23.116013    18.403341    15.399733    -11.339762    -0.401799    -0.133495    0.434656    
-2.997086    85.484932    94.305222    18.098709    17.846767    -105.713455    -3.230181    -9.897451    1.546806    0.352821    10.138051    1.795195    8.346162    23.353498    -24.456596    29.953100    -3.304745    -20.000734    4.989525    7.752937    -1.564724    -32.778416    31.594263    -33.402020    20.328960    -11.629725    -94.921501    34.459381    8.531091    -7.752466    -1.871348    12.997966    -0.923292    27.239002    41.182510    35.508747    -27.740591    -9.440062    58.640240    -33.616943    4.524714    6.556394    23.166250    -24.398521    12.768728    -4.905442    28.659050    24.480469    -1.759621    -14.663936    -9.720866    0.592594    0.434753    -0.656356    -15.359104    -37.944828    -10.349637    28.397022    49.308155    -23.973099    18.457052    15.595171    -11.173388    -0.386582    0.251904    0.417975    
-2.758998    85.455742    94.317558    18.269484    18.643820    -105.598465    -3.095019    -9.460845    1.396397    0.932239    10.144195    1.569745    8.639477    23.405006    -24.336201    30.047085    -3.209305    -19.855789    5.276672    7.202741    -2.283853    -31.849550    31.050568    -34.792332    20.795166    -13.064025    -96.579895    34.345421    8.438548    -7.382622    -1.894679    12.504327    -0.520443    26.465462    40.522072    35.059849    -27.245010    -8.811729    56.597759    -34.167484    4.045590    6.962564    24.287195    -24.975771    13.231993    -4.969064    29.438646    24.211807    -1.968320    -14.634621    -10.027303    0.645939    0.352147    -0.715547    -17.107664    -39.388016    -11.960840    29.910563    51.749371    -24.915903    18.444824    15.703465    -11.005297    -0.370311    0.569463    0.400208    
